<?xml version="1.0" standalone="no"?>
<!DOCTYPE svg PUBLIC "-//W3C//DTD SVG 20010904//EN"
 "http://www.w3.org/TR/2001/REC-SVG-20010904/DTD/svg10.dtd">
<svg version="1.0" xmlns="http://www.w3.org/2000/svg"
 width="500.000000pt" height="500.000000pt" viewBox="0 0 500.000000 500.000000"
 preserveAspectRatio="xMidYMid meet">
<metadata>
Created by potrace 1.14, written by Peter Selinger 2001-2017
</metadata>
<g transform="translate(0.000000,500.000000) scale(0.100000,-0.100000)"
fill="#000000" stroke="none">
<path d="M857 3756 c-37 -18 -76 -44 -85 -57 -44 -63 -82 -134 -82 -155 0 -14
-8 -25 -20 -29 -15 -5 -19 -12 -14 -29 4 -19 -3 -26 -50 -50 -37 -19 -68 -45
-90 -75 -19 -25 -64 -74 -99 -109 -35 -34 -72 -77 -82 -95 l-18 -33 42 -66
c42 -66 93 -108 132 -108 10 0 19 -4 19 -8 0 -8 43 -32 55 -32 3 0 5 13 5 29
0 23 5 30 28 34 53 10 120 -41 107 -83 -9 -27 -54 -55 -68 -41 -16 16 -37 14
-37 -3 0 -8 -7 -22 -17 -31 -11 -12 -16 -35 -17 -82 -1 -79 13 -94 80 -87 65
6 67 7 90 30 44 46 84 49 84 7 0 -39 85 -111 116 -99 8 3 28 -1 45 -9 37 -20
35 -20 66 0 36 24 50 2 28 -47 -10 -24 1 -49 25 -55 11 -3 22 -13 25 -24 3
-10 15 -21 26 -24 10 -4 17 -10 15 -13 -10 -17 21 -47 49 -47 57 -1 35 -29
-40 -50 -38 -11 -81 -27 -95 -34 -31 -17 -141 -131 -179 -186 -16 -22 -47 -55
-70 -73 -40 -32 -41 -35 -41 -93 0 -57 3 -64 36 -97 34 -34 36 -35 53 -16 10
10 23 38 30 61 14 51 49 85 132 128 35 18 63 38 62 43 -1 5 8 21 21 35 23 25
38 29 186 43 85 8 139 15 211 29 12 2 30 -10 51 -34 26 -30 42 -39 75 -44 30
-3 46 -1 54 9 6 8 17 14 25 14 7 0 22 14 34 31 21 29 23 30 42 12 24 -22 59
-99 82 -183 10 -36 22 -78 27 -93 6 -21 3 -39 -14 -73 -18 -38 -28 -46 -62
-55 -62 -16 -95 -47 -101 -94 -3 -22 -1 -46 4 -53 11 -17 310 -19 342 -2 12 6
20 14 17 16 -3 3 -1 22 4 42 5 20 11 57 15 82 3 25 13 58 21 74 16 31 12 59
-18 122 -19 41 -24 76 -34 234 -3 47 -6 94 -7 105 -3 17 2 20 37 18 100 -4
138 -4 255 0 110 4 138 9 230 39 58 20 112 38 120 42 19 7 52 -42 96 -142 18
-40 51 -97 74 -127 74 -96 64 -164 -39 -256 -46 -41 -60 -49 -81 -43 -33 9
-77 6 -118 -7 -34 -11 -52 -40 -52 -82 0 -47 10 -50 150 -51 131 -1 132 -1
150 25 11 14 60 47 109 74 76 40 96 56 125 99 19 28 48 68 65 90 17 21 31 46
31 55 0 9 -16 36 -35 60 -38 47 -48 74 -42 106 2 11 8 38 12 61 4 23 21 57 40
80 31 37 34 38 52 22 10 -10 40 -27 66 -38 26 -12 47 -25 47 -29 0 -15 92
-106 145 -143 28 -20 82 -51 120 -71 80 -40 96 -55 124 -117 21 -46 28 -143
12 -168 -5 -9 -24 -12 -57 -9 -27 2 -59 1 -70 -4 -30 -11 -64 -83 -55 -117 8
-31 9 -31 191 -33 122 -1 169 9 171 38 1 35 10 79 29 148 18 67 20 163 6 225
-4 14 -8 49 -10 78 -4 62 -9 69 -79 102 -84 40 -143 130 -173 260 -9 41 -29
102 -45 136 -16 34 -29 67 -29 75 0 22 -37 113 -75 187 -19 37 -38 81 -41 98
l-6 32 63 15 c66 15 261 16 329 2 66 -13 160 -54 222 -96 83 -56 224 -200 284
-291 56 -83 103 -212 98 -269 -4 -50 -40 -119 -61 -119 -9 0 -31 17 -48 37
-42 50 -97 71 -134 52 -66 -35 -71 -99 -13 -156 35 -33 40 -34 87 -29 157 17
175 25 220 96 81 128 43 285 -134 544 -232 340 -601 477 -1066 395 -38 -7 -92
-12 -120 -12 -52 0 -144 11 -158 20 -4 3 -38 4 -75 3 -109 -3 -115 -3 -162 3
-25 4 -117 9 -205 13 -141 5 -173 4 -265 -15 -182 -38 -181 -38 -223 4 -29 29
-36 42 -31 61 5 18 2 24 -11 24 -9 0 -29 8 -43 19 -15 10 -36 20 -47 22 -12 3
-21 14 -23 29 -2 14 -11 33 -20 43 -16 19 -95 57 -117 57 -7 0 -20 12 -30 26
-21 33 -63 50 -145 59 -77 9 -100 19 -100 45 0 11 -4 28 -9 38 -5 9 -12 25
-15 34 -8 27 -75 54 -126 51 -52 -2 -163 43 -155 64 9 24 -33 33 -141 28 -60
-2 -121 -7 -135 -10 -17 -4 -30 0 -39 10 -18 22 -47 18 -123 -19z"/>
</g>
</svg>
